<?xml version="1.0" encoding="UTF-8" standalone="no"?> <svg id="Layer_1" data-name="Layer 1" xmlns="http://www.w3.org/2000/svg" viewBox="0 0 128 128"><defs><style>.cls-1{fill:#2d3e50;}.cls-2{fill:#2e79bd;}</style></defs><title>b</title><path class="cls-1" d="M85.04748,113.83964c-.73385-4.05909-2.33225-12.78727-2.70158-13.89521C80.28,93.76935,74.76034,91.22321,69.13188,89.039q-6.51071-2.52656-13.02317-5.04857L43.7755,96.32134,31.44229,83.99044Q24.9307,86.51473,18.41913,89.039C12.79066,91.22321,7.271,93.76935,5.2051,99.94443c-.36933,1.10793-1.96773,9.83612-2.70158,13.89521a1.74991,1.74991,0,0,0,1.72225,2.06165H83.32524A1.74991,1.74991,0,0,0,85.04748,113.83964Z"/><path class="cls-1" d="M69.70369,75.05284a93.02445,93.02445,0,0,1-16.2789,3.30983.53975.53975,0,0,1-.3752-.97278,15.421,15.421,0,0,0,6.36333-12.4808V51.96962l-2.30982-.63041a30.20256,30.20256,0,0,1-6.64041-2.701l-1.53738-.84469-1.52494.86961A36.92872,36.92872,0,0,1,31.09211,53.821l-2.95269.17442v10.9137A15.58747,15.58747,0,0,0,34.50894,77.387a.5401.5401,0,0,1-.36988.97675,93.09792,93.09792,0,0,1-16.29041-3.31087,3.92026,3.92026,0,0,1-2.6163-5.00087l8.34724-24.88225A21.30269,21.30269,0,0,1,43.77741,30.643a11.84407,11.84407,0,0,1,4.24548.69517,14.2193,14.2193,0,0,1,3.54014,2.268,5.85111,5.85111,0,0,1,3.58331.35363c4.18806,2.21253,7.344,6.78985,8.8264,11.2099L72.32,70.052A3.91838,3.91838,0,0,1,69.70369,75.05284Z"/><path class="cls-2" d="M125.27919,33.13923a24.47407,24.47407,0,1,0-48.46284,6.87555,24.10164,24.10164,0,0,0,.74089,3.43639,24.64637,24.64637,0,0,0,3.066,6.07943c.01215.194.02428.38931.02561.58195a11.27615,11.27615,0,0,1-4.5343,9.30164.58554.58554,0,0,0,.26136,1.04936A17.44234,17.44234,0,0,0,88.6276,57.66429c.11049-.07273.21962-.14816.32737-.22362l.08889-.06465a28.93267,28.93267,0,0,0,8.98242,3.49435,24.49234,24.49234,0,0,0,27.25292-27.73115Z"/></svg>