<?xml version="1.0" encoding="utf-8"?>
<!-- Generator: Adobe Illustrator 23.0.3, SVG Export Plug-In . SVG Version: 6.00 Build 0)  -->
<svg version="1.1" id="Layer_1" xmlns="http://www.w3.org/2000/svg" xmlns:xlink="http://www.w3.org/1999/xlink" x="0px" y="0px"
	 viewBox="0 0 610 610" style="enable-background:new 0 0 610 610;" xml:space="preserve">
<style type="text/css">
	.st0{fill:url(#SVGID_1_);}
</style>
<linearGradient id="SVGID_1_" gradientUnits="userSpaceOnUse" x1="18.9806" y1="303.1875" x2="590.8538" y2="303.1875">
	<stop  offset="0" style="stop-color:#804D85"/>
	<stop  offset="1" style="stop-color:#41BDBD"/>
</linearGradient>
<path class="st0" d="M295.3,210.3L295.3,210.3c-6.2,0-11.2,5-11.3,11.2l0,26.4c-0.1,27.9-19.9,52-47.3,57.3l0.2-129.5
	c0-6.2-5-11.2-11.2-11.2h0c-6.2,0-11.2,5-11.2,11.2l-0.2,141.8c0,6.2,5,11.2,11.2,11.3h0.1c44.6,0,80.8-36.2,80.9-80.8l0-26.4
	C306.5,215.4,301.5,210.3,295.3,210.3z M332.1,187L332.1,187c-10,0-18.1,8.1-18.1,18.1c0,10,8.1,18.1,18.1,18.1h0
	c10,0,18.1-8.1,18.1-18.1C350.2,195.2,342.1,187.1,332.1,187z M332.1,209.5c-2.4,0-4.4-2-4.4-4.4c0-2.4,2-4.4,4.4-4.4
	c2.4,0,4.4,2,4.4,4.4C336.5,207.6,334.5,209.5,332.1,209.5z M586.6,185.6c-17-84.1-77.8-138.5-155-138.5c-40.4,0-84,15.5-126.7,44.9
	c-43.2-30.7-86.1-46.3-127.5-46.3c-77.6,0-138.2,55-154.3,140c-23.6,122.8,51,285.6,270.7,372.8c0.2,0.1,0.4,0.1,0.6,0.2
	c6.7,2.6,14.2,2.6,20.9,0c0.2-0.1,0.4-0.2,0.7-0.2c100.7-40.8,178.9-100.6,226-173C583.4,321.7,599.3,250.8,586.6,185.6
	C586.6,185.6,586.6,185.6,586.6,185.6z M161.3,456.5c9.1-3.3,17.3-8.8,23.9-15.8l110.2,0.1l0,88.5c0,2.3,0.7,4.5,2,6.4
	C242.6,513.4,197.5,486.4,161.3,456.5z M476.8,255.8L458.6,240l11.1,0c3.9,0,7.1,3.2,7.1,7.1L476.8,255.8z M424.3,240l52.4,45.6
	l0,13.9c0,6.6-5.4,12-12,12h0l-103.3-0.1c-16.8,0-33.3-4.8-47.6-13.8c-5.3-3.2-12.1-1.6-15.4,3.6c-3.3,5.2-1.7,12.1,3.4,15.4
	c11.9,7.5,25.1,12.7,38.9,15.3c-4.8,3.4-9.3,7.2-13.4,11.4c-11.7,11.6-20.6,25.8-26,41.3l-99.6-0.1l0.3-201.9
	c0-14,11.4-25.3,25.4-25.3h0l103,0.1c3.9,0,7.5,1.9,9.8,5l47.4,66.8c4.9,6.9,12.8,10.9,21.2,10.9L424.3,240z M201.2,406.8l95,0.1
	c-0.5,3.8-0.7,7.6-0.8,11.4l-96.9-0.1C199.8,414.5,200.7,410.7,201.2,406.8z M523.1,373.2C480,439.5,408.8,494.9,316.8,533.8
	c0.6-1.4,1-3,1-4.5l0-49.6c13.8,13.5,33.4,19,52.2,14.7l11.1-2.6c6-1.4,9.8-7.4,8.4-13.5l-2.6-11.1c-7-30.4-37.4-49.4-67.8-42.4
	l-1.3,0.3V420c0.1-47.6,38.7-86.2,86.3-86.2h0.1c0.4,0,0.9,0,1.3-0.1l59,0.1h0.1c19,0,34.4-15.4,34.5-34.4l0.1-52.3
	c0-16.3-13.2-29.5-29.5-29.6l-60.9-0.1c-0.3,0-0.6,0-1-0.1c-0.8-0.2-1.4-0.7-1.9-1.4l-47.4-66.8c-6.5-9.1-16.9-14.5-28-14.5
	l-103-0.1h-0.1c-26.4,0-47.8,21.4-47.8,47.8l-0.3,216.4c-0.1,21.5-17.5,39-39.1,39c0,0-0.1,0-0.1,0
	C57.8,359.6,30.6,266.2,45.2,189.9c7-36.8,23.1-67.6,46.7-89.2c23.3-21.3,52.9-32.5,85.5-32.5c38.6,0,79.2,15.7,120.7,46.7
	c3.9,2.9,9.3,3,13.3,0.1c40.9-29.7,82.4-45.4,120.1-45.4c32.6,0,62.2,11.2,85.6,32.4c23.6,21.4,40,51.8,47.3,88
	C576.1,249.4,561.3,314.4,523.1,373.2z M324.1,446.8l0.1,0c18.3-4.2,36.6,7.2,40.9,25.5l0,0.1l-0.1,0c-18.3,4.2-36.6-7.2-40.9-25.5
	L324.1,446.8z"/>
</svg>
