<?xml version="1.0" encoding="UTF-8" standalone="no"?> <svg id="Layer_1" data-name="Layer 1" xmlns="http://www.w3.org/2000/svg" viewBox="0 0 128 128"><defs><style>.cls-1{fill:#2d3e50;}</style></defs><title>x</title><path class="cls-1" d="M58.00213,45.52814,79.47089,60.26706l45.23335-32.14174a2.51473,2.51473,0,0,0,.31555-3.83809,25.80325,25.80325,0,0,0-33.10573-2.9093Z"/><path class="cls-1" d="M52.727,98.33253a25.13848,25.13848,0,0,0-1.332-8.09678c-.2103-.59591-.4206-1.19183-.68352-1.77009a25.02544,25.02544,0,0,0-1.45465-2.9093c-.35053-.57827-.701-1.13909-1.08657-1.68238-.19276-.28047-.40305-.56083-.61335-.8413l5.64316-3.99576,38.71391,27.5676a25.80126,25.80126,0,0,0,33.10573-2.89165,2.53452,2.53452,0,0,0-.31555-3.85563L74.24832,64,47.52191,45.0024c.01754-.01754.01754-.03509.03509-.05263.28036-.36807.56083-.75358.82365-1.1392q.47317-.70967.89382-1.41956a23.13317,23.13317,0,0,0,1.43711-2.8741,15.40887,15.40887,0,0,0,.68352-1.77009,24.95491,24.95491,0,0,0,1.332-8.07924,25.24551,25.24551,0,1,0-38.8366,21.25835c.15778.2104.12269.2104,1.12166.9289.12269.08761.26282.19275.4206.2979l.01754.01754q.42054.31545,1.10412.78867c.01754,0,.035,0,.035.03509.298.2103.61346.45557.999.701.01754,0,.03509.03509.03509.03509C20.112,55.53515,24.40575,58.61965,31.819,64c-7.41326,5.38035-11.707,8.46485-14.19563,10.26993-.01754,0-.03509.03509-.03509.03509-.38551.24538-.701.49077-.999.70106-1.54215,1.10412-2.12052,1.52471-2.401,1.735a.81363.81363,0,0,1-.12258.12269c-.07017.07006-.10526.12269-.17532.19276a25.249,25.249,0,1,0,38.8366,21.276Zm-39.01182-68.665A13.75754,13.75754,0,1,1,27.47271,43.42506,13.78473,13.78473,0,0,1,13.71522,29.66757Zm0,68.665A13.75754,13.75754,0,1,1,27.47271,112.09,13.76972,13.76972,0,0,1,13.71522,98.33253Z"/></svg>