<?xml version="1.0" encoding="iso-8859-1"?>
<!-- Generator: Adobe Illustrator 20.0.0, SVG Export Plug-In . SVG Version: 6.00 Build 0)  -->
<svg version="1.1" id="Layer_1_1_" xmlns="http://www.w3.org/2000/svg" xmlns:xlink="http://www.w3.org/1999/xlink" x="0px" y="0px"
	 viewBox="0 0 64 64" style="enable-background:new 0 0 64 64;" xml:space="preserve">
<path d="M13,2v2h-1c-0.553,0-1,0.447-1,1v1H8C7.447,6,7,6.447,7,7v8c0,0.553,0.447,1,1,1h3v1c0,0.553,0.447,1,1,1h1v43
	c0,0.553,0.447,1,1,1h4c0.553,0,1-0.447,1-1V18h26v43c0,0.553,0.447,1,1,1h4c0.553,0,1-0.447,1-1V18h1c0.553,0,1-0.447,1-1v-1h3
	c0.553,0,1-0.447,1-1V7c0-0.553-0.447-1-1-1h-3V5c0-0.553-0.447-1-1-1h-1V2h-2v2H15V2H13z M9,14V8h2v6H9z M15,60v-4h2v4H15z M17,54
	h-2V18h2V54z M47,60v-4h2v4H47z M49,54h-2V18h2V54z M51,16h-1h-4H18h-4h-1v-1V7V6h38v1v8V16z M55,8v6h-2V8H55z"/>
<path d="M24,8h-6c-0.553,0-1,0.447-1,1v4c0,0.553,0.447,1,1,1h6c0.553,0,1-0.447,1-1V9C25,8.447,24.553,8,24,8z M23,12h-4v-2h4V12z"
	/>
<rect x="29" y="8" width="2" height="2"/>
<rect x="33" y="8" width="2" height="2"/>
<rect x="37" y="8" width="2" height="2"/>
<rect x="41" y="8" width="2" height="2"/>
<rect x="45" y="8" width="2" height="2"/>
<rect x="29" y="12" width="6" height="2"/>
<rect x="37" y="12" width="6" height="2"/>
<path d="M39.778,33.222c-1.636-1.635-4.642-1.412-7.779,0.304c-3.137-1.715-6.143-1.937-7.778-0.304
	c-1.635,1.636-1.412,4.642,0.304,7.778c-1.716,3.136-1.939,6.142-0.304,7.778c0.754,0.754,1.799,1.112,3.014,1.112
	c1.42,0,3.074-0.506,4.765-1.431c1.69,0.925,3.344,1.431,4.765,1.431c1.215,0,2.26-0.359,3.014-1.112
	c1.635-1.636,1.412-4.642-0.304-7.778C41.19,37.864,41.413,34.858,39.778,33.222z M25.636,34.636c0.36-0.36,0.921-0.542,1.622-0.542
	c0.781,0,1.741,0.239,2.786,0.696c-0.776,0.574-1.544,1.227-2.286,1.968c-0.744,0.744-1.398,1.514-1.973,2.292
	C24.914,37.065,24.873,35.399,25.636,34.636z M32,35.862c0.933,0.612,1.891,1.372,2.828,2.31c0.937,0.937,1.71,1.896,2.321,2.828
	c-0.612,0.932-1.384,1.891-2.321,2.828c-0.937,0.937-1.896,1.71-2.828,2.321c-0.932-0.612-1.891-1.384-2.828-2.321
	c-0.937-0.937-1.71-1.896-2.321-2.828c0.612-0.932,1.384-1.891,2.321-2.828C30.109,37.234,31.067,36.474,32,35.862z M25.636,47.364
	c-0.763-0.763-0.721-2.429,0.149-4.414c0.575,0.778,1.23,1.549,1.973,2.292c0.742,0.742,1.511,1.402,2.287,1.976
	C28.062,48.087,26.399,48.128,25.636,47.364z M38.364,47.364c-0.762,0.763-2.426,0.722-4.409-0.146
	c0.776-0.574,1.545-1.234,2.287-1.976c0.744-0.744,1.398-1.514,1.973-2.292C39.086,44.935,39.127,46.601,38.364,47.364z
	 M36.242,36.758c-0.741-0.742-1.51-1.395-2.286-1.968c1.044-0.457,2.004-0.696,2.786-0.696c0.7,0,1.262,0.182,1.622,0.542
	c0.763,0.763,0.721,2.429-0.149,4.414C37.641,38.272,36.986,37.501,36.242,36.758z"/>
<circle cx="32" cy="41" r="1"/>
<rect x="31" y="28" width="2" height="2"/>
<rect x="35" y="24" width="2" height="2"/>
<rect x="31" y="24" width="2" height="2"/>
<rect x="27" y="24" width="2" height="2"/>
<rect x="31" y="52" width="2" height="2"/>
<rect x="27" y="56" width="2" height="2"/>
<rect x="31" y="56" width="2" height="2"/>
<rect x="35" y="56" width="2" height="2"/>
</svg>
