<?xml version="1.0" encoding="UTF-8" standalone="no"?> <svg height="639pt" viewBox="-94 -20 639 639.99909" width="639pt" xmlns="http://www.w3.org/2000/svg"><path d="m75.5 50h-70c-5.5234375 0-10 4.476562-10 10s4.4765625 10 10 10h70c5.523438 0 10-4.476562 10-10s-4.476562-10-10-10zm0 0"/><path d="m74.082031 29.902344c5.464844.78125 10.535157-3.011719 11.320313-8.480469s-3.011719-10.539063-8.480469-11.320313l-70-10c-5.46875-.785156-10.539063 3.015626-11.320313 8.476563-.785156 5.46875 3.015626 10.539063 8.480469 11.324219zm0 0"/><path d="m74.082031 90.101562-70 10c-5.464843.78125-9.265625 5.851563-8.480469 11.320313.78125 5.46875 5.851563 9.261719 11.320313 8.480469l70-10c5.46875-.785156 9.265625-5.855469 8.480469-11.324219-.785156-5.460937-5.855469-9.261719-11.320313-8.476563zm0 0"/><path d="m444.789062 286.277344-9.9375-24.835938c-5.273437-13.214844-15.957031-23.53125-29.351562-28.339844v-33.101562c0-5.523438-4.476562-10-10-10h-50v-70h90c3.082031 0 5.992188-1.414062 7.886719-3.847656 1.890625-2.425782 2.5625-5.589844 1.8125-8.578125l-16.207031-64.855469c-3.339844-13.351562-15.34375-22.71875-29.113282-22.71875h-254.378906c-22.089844 0-40 17.910156-40 40 0 22.09375 17.910156 40 40 40h35.589844c-7.460938 18.769531-22.890625 53.160156-42.660156 72.929688-3.4375 3.476562-3.863282 8.925781-1.007813 12.890624 2.863281 3.964844 8.171875 5.277344 12.550781 3.109376.371094-.1875 32.996094-16.535157 75.527344-41.417969v42.488281h-30c-5.523438 0-10 4.476562-10 10v33.101562c-13.382812 4.804688-24.074219 15.121094-29.347656 28.328126l-9.941406 24.847656c-.46875 1.1875-.707032 2.449218-.710938 3.722656v260c.035156 27.601562 22.402344 49.964844 50 50h200c27.601562-.035156 49.96875-22.398438 50-50v-260c0-1.273438-.242188-2.535156-.710938-3.722656zm-28.519531-17.414063 9.230469 23.054688v108.691406c-10.675781 1.289063-20.921875 4.945313-30 10.714844-18.34375 11.570312-41.710938 11.570312-60.058594 0-11.890625-7.671875-25.796875-11.613281-39.941406-11.324219v-150h92.917969c12.28125-.039062 23.335937 7.441406 27.851562 18.863281zm-290.769531-208.863281c0-11.042969 8.953125-20 20-20h10v40h-10c-11.046875 0-20-8.953125-20-20zm53.519531 90.902344c9.164063-16.328125 17.03125-33.34375 23.53125-50.902344h22.949219v24.300781c-17.207031 10.242188-33.207031 19.3125-46.480469 26.601563zm56.480469-70.902344h-60v-40h224.378906c4.59375 0 8.597656 3.125 9.710938 7.582031l3.101562 12.417969h-67.191406c-5.523438 0-10 4.476562-10 10s4.476562 10 10 10h70c.710938-.0625 1.410156-.203125 2.089844-.417969l5.101562 20.417969h-87.191406c-5.523438 0-10 4.476562-10 10v80h-80v-100c0-5.523438-4.476562-10-10-10zm-30 130h180v20h-180zm-30.765625 58.863281c4.515625-11.421875 15.570313-18.902343 27.84375-18.863281h72.921875v152.460938c-7.035156 2.03125-13.765625 5.007812-20 8.863281-18.351562 11.574219-41.722656 11.574219-60.078125 0-9.082031-5.753907-19.332031-9.410157-30-10.703125v-108.703125zm250.765625 281.136719c0 16.570312-13.429688 30-30 30h-200c-16.566406 0-30-13.429688-30-30v-129.269531c7.132812 1.316406 13.929688 4.035156 20 8 24.507812 15.085937 55.417969 15.085937 79.921875 0 3.21875-1.929688 6.558594-3.644531 10-5.128907v96.398438c0 5.523438 4.476563 10 10 10s10-4.476562 10-10v-100c10.652344-.257812 21.132813 2.773438 30 8.679688 24.511719 15.09375 55.429687 15.09375 79.941406 0 6.0625-3.972657 12.867188-6.691407 20-7.996094zm0 0"/><path d="m295.5 80h10c5.523438 0 10-4.476562 10-10s-4.476562-10-10-10h-10c-5.523438 0-10 4.476562-10 10s4.476562 10 10 10zm0 0"/></svg>