<?xml version="1.0" encoding="UTF-8" standalone="no"?><svg xmlns="http://www.w3.org/2000/svg" xmlns:xlink="http://www.w3.org/1999/xlink" version="1.1" id="Layer_1" x="0px" y="0px" viewBox="0 0 40 40" xml:space="preserve" width="40" height="40"><path fill="#C2E8FF" stroke="#7496C4" stroke-miterlimit="10" d="M1.5 38.5l5-5"/><path d="M4.5 35.5v-4.64c0-.947.369-1.837 1.038-2.507l6.642-6.542c.183-.156.376-.349.555-.558a4.556 4.556 0 0 0 .996-2.846c0-1.1-.385-2.146-1.084-2.943-.308-.352-.301-.855.016-1.173l1.534-1.534a.856.856 0 0 1 .598-.258 13.32 13.32 0 0 1 4.946 1.276 13.588 13.588 0 0 1 6.5 6.503 13.56 13.56 0 0 1 1.257 4.595.862.862 0 0 1-.256.677l-1.668 1.669a.82.82 0 0 1-.584.242.888.888 0 0 1-.558-.201 4.481 4.481 0 0 0-2.805-.967 4.408 4.408 0 0 0-2.962 1.113l-7.017 7.058a3.515 3.515 0 0 1-2.501 1.035H4.5z" fill="#C2E8FF"/><path d="M14.793 13h.016c1.639.104 3.225.517 4.72 1.23a13.092 13.092 0 0 1 6.26 6.265 13.07 13.07 0 0 1 1.21 4.425.36.36 0 0 1-.112.277l-1.668 1.669a.321.321 0 0 1-.231.096.386.386 0 0 1-.244-.09 4.97 4.97 0 0 0-3.118-1.079 4.91 4.91 0 0 0-3.297 1.241l-.019.018-.019.019-.245.245-6.752 6.795a3.028 3.028 0 0 1-2.15.889H5v-4.14c0-.813.317-1.578.886-2.148l6.621-6.522c.216-.188.421-.394.628-.637.706-.883 1.095-2 1.095-3.146a4.957 4.957 0 0 0-1.208-3.273c-.115-.132-.155-.342-.007-.49l1.534-1.535a.361.361 0 0 1 .244-.109m0-1c-.355 0-.699.151-.952.404l-1.534 1.535c-.509.509-.512 1.314-.038 1.855.592.676.961 1.603.961 2.614 0 .971-.337 1.847-.876 2.521a4.92 4.92 0 0 1-.525.526L5.184 28A4.045 4.045 0 0 0 4 30.86v4.85c.084.084.211.206.294.29h4.849a4.041 4.041 0 0 0 2.856-1.182l6.755-6.797.243-.243a3.922 3.922 0 0 1 2.628-.984c.959 0 1.828.322 2.49.857.257.207.566.311.872.311.341 0 .679-.129.938-.389l1.668-1.669c.282-.282.437-.678.4-1.076a14.095 14.095 0 0 0-1.303-4.762 14.105 14.105 0 0 0-6.738-6.741 13.822 13.822 0 0 0-5.082-1.323 1.88 1.88 0 0 0-.077-.002z" fill="#7496C4"/><path d="M38.5 15.531C38.229 7.84 32.172 1.757 24.481 1.486" fill="none" stroke="#4E7AB5" stroke-linecap="round" stroke-miterlimit="10"/><path d="M34.519 16.406l.002-.038c0-6.006-4.869-10.875-10.875-10.875l-.038.002" fill="none" stroke="#4E7AB5" stroke-linecap="round" stroke-miterlimit="10"/><path d="M30.514 17.514c.018-.209 0-.454 0-.668A7.346 7.346 0 0 0 23.168 9.5c-.214 0-.459-.018-.668 0" fill="none" stroke="#4E7AB5" stroke-linecap="round" stroke-miterlimit="10"/><path d="M16.794 24.198l-3.596 3.596a.71.71 0 0 1-1 0 .71.71 0 0 1 0-1l3.596-3.596a.71.71 0 0 1 1 0 .71.71 0 0 1 0 1z" fill="#4E7AB5"/><metadata><rdf:RDF xmlns:rdf="http://www.w3.org/1999/02/22-rdf-syntax-ns#" xmlns:rdfs="http://www.w3.org/2000/01/rdf-schema#" xmlns:dc="http://purl.org/dc/elements/1.1/"><rdf:Description about="https://iconscout.com/legal#licenses" dc:title="ultrasound,filled" dc:description="ultrasound,filled" dc:publisher="Iconscout" dc:date="2017-10-29" dc:format="image/svg+xml" dc:language="en"><dc:creator><rdf:Bag><rdf:li>Icons8</rdf:li></rdf:Bag></dc:creator></rdf:Description></rdf:RDF></metadata></svg>