<?xml version="1.0" standalone="no"?>
<!DOCTYPE svg PUBLIC "-//W3C//DTD SVG 20010904//EN"
 "http://www.w3.org/TR/2001/REC-SVG-20010904/DTD/svg10.dtd">
<svg version="1.0" xmlns="http://www.w3.org/2000/svg"
 width="800.000000pt" height="500.000000pt" viewBox="0 0 800.000000 500.000000"
 preserveAspectRatio="xMidYMid meet">
<metadata>
Created by potrace 1.16, written by Peter Selinger 2001-2019
</metadata>
<g transform="translate(0.000000,500.000000) scale(0.100000,-0.100000)"
fill="#000000" stroke="none">
<path d="M3769 4990 c-763 -74 -1450 -492 -1868 -1135 -366 -563 -485 -1228
-340 -1903 33 -156 115 -385 194 -547 323 -664 913 -1142 1632 -1326 218 -55
366 -73 623 -73 284 0 487 30 742 110 537 171 1009 527 1328 1003 298 446 449
1001 411 1521 -28 381 -113 693 -276 1007 -119 230 -244 402 -434 597 -390
399 -893 655 -1439 732 -128 18 -453 26 -573 14z m391 -40 c188 -14 439 -54
425 -68 -3 -3 -28 -13 -56 -23 -140 -50 -289 -227 -419 -500 -87 -183 -119
-383 -86 -531 16 -74 64 -168 109 -216 71 -76 276 -177 423 -207 258 -53 449
89 530 394 72 272 8 624 -157 872 -32 47 -75 98 -94 114 -20 15 -34 29 -32 31
7 7 198 -71 309 -127 221 -111 426 -259 613 -444 397 -391 653 -917 716 -1475
17 -149 15 -452 -4 -585 -63 -448 -246 -876 -521 -1220 -77 -95 -252 -271
-361 -363 -460 -386 -1123 -600 -1710 -553 -368 29 -602 92 -920 246 -256 123
-461 270 -665 474 -376 378 -609 841 -692 1376 -29 189 -31 536 -5 703 125
786 574 1429 1262 1810 97 54 262 129 321 146 13 4 0 -15 -36 -52 -70 -71
-128 -170 -168 -282 -41 -117 -55 -212 -54 -365 0 -161 25 -284 81 -400 69
-143 155 -218 312 -276 145 -54 279 -43 444 36 216 103 301 294 251 559 -47
243 -215 577 -366 725 -63 62 -164 121 -209 121 -80 1 143 51 309 70 190 21
269 22 450 10z m-729 -165 l34 -14 -41 -1 c-171 -1 -346 -210 -410 -487 -20
-83 -26 -295 -12 -408 11 -89 -9 -33 -28 79 -21 118 -14 308 15 421 27 106
100 248 161 318 85 95 194 130 281 92z m1264 1 c30 -13 30 -13 -26 -18 -75 -8
-130 -38 -207 -112 -77 -73 -150 -182 -225 -331 -90 -182 -135 -359 -123 -489
6 -60 6 -61 -9 -28 -22 47 -30 167 -16 248 19 109 51 200 114 324 112 219 200
330 307 389 61 34 131 40 185 17z"/>
<path d="M5407 3828 c-70 -13 -143 -48 -222 -108 -276 -209 -410 -409 -408
-610 2 -213 175 -396 450 -476 179 -52 358 65 474 311 58 124 83 230 83 360 0
118 -12 179 -65 317 -61 159 -172 232 -312 206z m128 -82 c19 -8 35 -16 35
-18 0 -2 -24 -3 -53 -4 -178 -2 -520 -302 -607 -531 -12 -32 -25 -92 -29 -133
l-7 -75 -12 40 c-45 152 32 331 222 513 203 193 337 255 451 208z"/>
<path d="M2413 3809 c-78 -38 -142 -138 -174 -269 -20 -85 -15 -278 10 -375
44 -165 159 -355 260 -429 28 -21 90 -54 138 -73 74 -31 100 -37 164 -37 68
-1 83 3 153 38 104 51 195 139 238 231 44 95 44 173 -1 310 -38 116 -62 162
-140 264 -62 83 -215 224 -305 282 -123 80 -254 102 -343 58z m213 -73 l29
-16 -40 6 c-91 13 -176 -38 -226 -137 -47 -95 -62 -175 -56 -314 3 -66 8 -131
12 -145 l6 -25 -11 25 c-46 104 -51 340 -11 455 47 131 103 178 207 172 33 -3
73 -12 90 -21z"/>
<path d="M3880 3436 c-161 -45 -385 -231 -592 -492 -342 -431 -483 -700 -495
-940 -9 -163 33 -270 144 -374 194 -182 567 -267 940 -215 130 18 192 17 408
-5 55 -6 159 -11 230 -12 108 -1 144 2 210 21 223 62 368 187 419 360 20 68
21 213 2 301 -65 304 -386 840 -653 1090 -242 227 -442 313 -613 266z m112
-77 c-214 -36 -535 -344 -849 -814 -169 -253 -253 -461 -253 -622 0 -66 12
-82 35 -47 15 23 16 33 6 59 -31 87 7 161 160 314 109 109 148 129 278 143
125 14 141 8 243 -90 70 -68 78 -80 89 -130 10 -49 20 -65 85 -133 56 -59 74
-85 74 -106 0 -61 -65 -123 -143 -137 -29 -6 -37 -11 -33 -23 8 -21 -33 -102
-62 -121 -12 -8 -37 -18 -55 -21 -29 -6 -33 -11 -44 -61 l-13 -55 5 58 c5 51
3 57 -14 57 -13 0 -28 -21 -54 -77 -41 -88 -51 -85 -12 3 31 70 65 127 73 120
2 -3 -1 -12 -8 -21 -10 -13 -9 -15 9 -15 13 0 21 7 22 18 1 16 2 16 6 0 2 -10
12 -18 21 -18 28 0 80 37 96 68 14 27 14 31 -4 47 -11 10 -20 24 -20 32 0 8
-11 13 -27 13 -25 0 -91 17 -134 35 -13 5 -20 -6 -35 -54 -21 -72 -29 -74 -14
-3 9 42 9 56 -5 81 -18 37 -13 38 27 10 25 -18 34 -20 54 -10 36 16 44 14 44
-13 0 -20 6 -25 38 -29 112 -14 184 -4 215 31 15 17 14 19 -19 37 -19 10 -40
27 -45 36 -12 24 14 49 52 49 16 0 29 3 29 8 0 4 -36 44 -81 90 l-80 83 6 44
c6 39 4 45 -16 56 -13 7 -46 32 -74 56 -32 28 -69 49 -103 59 -49 15 -59 14
-125 -1 -100 -25 -121 -37 -215 -128 -140 -137 -176 -220 -134 -304 24 -46 78
-97 130 -121 31 -15 36 -15 40 -2 3 8 26 57 53 108 l47 92 -19 73 c-26 100
-25 149 4 183 24 27 47 26 47 -2 0 -8 -12 -37 -26 -64 -27 -52 -28 -83 -3
-149 l11 -26 14 28 c19 35 39 34 61 -3 9 -17 20 -30 23 -30 3 0 21 16 40 35
45 46 60 45 59 -2 -1 -22 -3 -29 -6 -18 -3 11 -8 24 -12 28 -8 8 -61 -54 -61
-72 0 -14 33 -31 62 -32 28 -2 -73 -21 -119 -23 -27 -1 -32 -4 -27 -19 3 -10
6 -39 7 -64 0 -63 -33 -93 -103 -93 l-49 0 -11 -57 c-6 -32 -13 -62 -16 -68
-6 -13 5 100 11 117 3 8 -14 21 -49 36 -30 13 -73 40 -97 60 l-42 36 -23 -28
c-13 -15 -24 -37 -24 -49 0 -37 -18 -5 -36 63 -53 209 60 485 367 891 190 251
349 418 497 521 100 69 151 87 237 86 l70 0 -53 -9z m-74 -301 c2 -12 -9 -20
-45 -30 -30 -9 -49 -20 -51 -31 -2 -9 29 -111 69 -227 l72 -210 26 19 c14 10
46 27 71 38 l45 20 63 178 c45 129 60 181 52 190 -6 7 -31 18 -55 24 -25 6
-45 15 -45 19 1 23 24 28 142 28 113 0 127 -1 131 -17 4 -13 -4 -21 -28 -29
-18 -6 -37 -21 -44 -37 -15 -32 -131 -339 -131 -346 0 -2 35 -6 78 -9 144 -8
259 -85 319 -213 26 -55 28 -70 28 -180 0 -93 -4 -131 -19 -171 -48 -130 -148
-222 -272 -251 l-72 -17 37 -25 c180 -125 198 -131 257 -86 30 23 34 24 43 8
13 -24 -1 -46 -60 -93 -39 -30 -60 -40 -88 -40 -40 0 -55 8 -151 85 -86 69
-96 71 -152 36 -34 -21 -49 -26 -57 -18 -20 20 -11 36 48 86 l59 49 -52 6
c-72 9 -165 55 -216 106 -111 111 -140 327 -65 495 l24 56 -94 261 c-52 143
-102 269 -111 279 -9 11 -25 19 -35 19 -21 0 -31 13 -24 32 4 11 36 14 153 13
129 0 147 -2 150 -17z"/>
<path d="M4104 2425 l-59 -155 -47 0 c-28 0 -48 5 -51 13 -3 6 -6 -12 -6 -41
-2 -140 64 -285 156 -339 43 -25 58 -28 133 -28 74 0 91 3 131 27 87 51 130
151 130 305 0 51 -5 112 -12 135 -39 148 -141 238 -269 238 l-47 0 -59 -155z"/>
<path d="M2570 1324 c0 -22 146 -344 154 -341 6 2 35 71 64 153 65 181 70 198
51 192 -13 -4 -29 -39 -74 -161 -11 -31 -21 -45 -27 -39 -5 5 -27 51 -48 103
l-39 94 -40 3 c-23 2 -41 0 -41 -4z"/>
<path d="M2890 1303 c0 -16 -2 -94 -4 -175 l-5 -148 115 0 c69 0 114 4 114 10
0 6 -32 10 -75 10 l-75 0 0 75 0 75 50 0 c64 0 66 18 3 22 l-48 3 0 70 0 70
75 6 c71 5 69 5 -37 7 l-113 2 0 -27z"/>
<path d="M3126 1321 c5 -5 27 -11 49 -13 l40 -3 3 -163 3 -163 32 3 32 3 5
160 5 160 48 3 c26 2 47 7 47 13 0 5 -58 9 -137 9 -85 0 -133 -4 -127 -9z"/>
<path d="M3420 1165 c0 -91 0 -168 0 -172 0 -5 49 -9 110 -11 71 -2 110 1 110
8 0 6 -30 10 -75 10 l-76 0 3 73 3 72 48 3 c60 4 62 22 2 22 -42 0 -44 2 -50
33 -4 18 -5 51 -3 72 l3 40 75 6 c71 5 69 5 -37 7 l-113 2 0 -165z"/>
<path d="M3670 1155 l0 -175 35 0 34 0 3 72 c2 44 8 73 15 75 6 2 33 -30 60
-71 43 -69 51 -76 80 -76 17 0 34 3 36 8 3 4 -15 37 -39 75 -24 37 -44 71 -44
76 0 5 16 25 35 44 45 45 46 79 4 118 -30 28 -35 29 -125 29 l-94 0 0 -175z"/>
<path d="M3974 1317 c-2 -7 -3 -85 -2 -172 l3 -160 35 0 35 0 3 173 2 172 -35
0 c-20 0 -38 -6 -41 -13z"/>
<path d="M4090 1155 c0 -149 2 -175 15 -175 13 0 15 22 15 136 0 161 -4 161
103 9 84 -119 107 -146 118 -139 5 3 9 81 9 175 0 142 -2 169 -15 169 -11 0
-15 -20 -17 -95 l-3 -96 -78 96 c-71 87 -81 95 -112 95 l-35 0 0 -175z"/>
<path d="M4480 1308 c-5 -13 -27 -84 -49 -159 -23 -75 -43 -144 -47 -153 -4
-10 -1 -16 9 -16 10 0 21 19 32 55 l16 56 71 -3 71 -3 17 -50 c16 -47 19 -50
53 -53 21 -2 37 1 37 7 0 6 -17 55 -38 108 -22 54 -50 127 -63 163 -24 63 -26
65 -62 68 -31 3 -39 -1 -47 -20z"/>
<path d="M4720 1154 l0 -175 38 3 37 3 3 73 c2 39 7 72 12 72 5 0 32 -34 60
-75 47 -69 53 -75 85 -75 19 0 35 3 35 7 0 3 -21 40 -46 80 l-46 74 36 34 c47
42 49 84 7 126 -28 28 -33 29 -125 29 l-96 0 0 -176z"/>
<path d="M5025 1308 c-3 -13 -4 -90 -3 -173 l3 -150 35 0 35 0 3 173 2 172
-35 0 c-28 0 -36 -5 -40 -22z"/>
<path d="M5230 1308 c-5 -13 -27 -84 -49 -159 -23 -75 -43 -144 -47 -153 -4
-10 -1 -16 9 -16 10 0 21 19 32 55 l16 56 71 -3 71 -3 17 -50 c16 -47 19 -50
53 -53 21 -2 37 1 37 7 0 6 -17 55 -38 108 -22 54 -50 127 -63 163 -24 63 -26
65 -62 68 -31 3 -39 -1 -47 -20z"/>
<path d="M3015 724 c-68 -35 -98 -84 -98 -159 0 -28 8 -65 17 -83 18 -35 98
-92 128 -92 10 0 28 -16 40 -35 25 -38 35 -42 63 -21 17 12 18 17 6 39 -13 24
-12 28 19 53 41 35 60 80 60 142 0 120 -133 209 -235 156z m120 -28 c45 -45
57 -166 24 -238 -16 -35 -20 -35 -42 3 -16 30 -19 30 -40 16 -15 -10 -21 -24
-20 -42 l2 -28 -25 24 c-57 54 -55 204 4 272 22 25 68 21 97 -7z"/>
<path d="M3290 610 c0 -150 10 -183 65 -206 60 -25 155 -12 189 25 23 25 30
101 20 217 l-9 99 -5 -143 c-5 -142 -5 -144 -33 -168 -15 -13 -39 -24 -53 -24
-33 0 -79 25 -90 47 -5 10 -11 77 -14 148 l-5 130 -32 3 -33 3 0 -131z"/>
<path d="M3617 733 c-4 -3 -7 -82 -7 -175 l0 -168 110 0 c67 0 110 4 110 10 0
6 -32 10 -75 10 l-75 0 0 75 c0 75 3 80 39 75 7 -1 25 2 40 6 23 7 19 9 -24
14 l-50 5 0 70 0 70 75 6 c74 5 74 5 -31 7 -58 1 -109 -1 -112 -5z"/>
<path d="M3860 730 c0 -5 33 -10 74 -12 l73 -3 -78 -145 c-43 -80 -78 -153
-78 -162 -1 -16 11 -18 118 -18 69 0 122 4 126 10 4 6 -21 10 -69 10 -41 0
-78 5 -81 10 -4 6 28 76 69 157 42 80 76 150 76 154 0 5 -52 9 -115 9 -67 0
-115 -4 -115 -10z"/>
<path d="M4200 638 c-17 -57 -40 -130 -51 -162 -21 -67 -23 -86 -10 -86 5 0
17 25 26 55 l16 55 72 0 73 0 18 -55 c16 -53 18 -55 52 -55 18 0 34 5 34 10 0
9 -28 84 -109 290 -16 41 -21 45 -54 48 l-36 3 -31 -103z"/>
<path d="M4470 564 l0 -176 90 4 c80 4 95 7 132 34 35 24 46 39 57 81 16 60 9
125 -18 169 -29 47 -75 64 -175 64 l-86 0 0 -176z m174 147 c46 -50 59 -167
27 -236 -23 -52 -40 -65 -87 -68 l-39 -2 -3 150 c-1 82 0 155 2 162 8 21 80
16 100 -6z"/>
<path d="M4875 678 c-9 -35 -33 -112 -51 -171 -39 -124 -38 -120 -22 -115 6 2
19 26 28 54 l17 49 73 0 73 0 17 -50 c16 -47 19 -50 55 -53 28 -3 36 0 32 10
-24 62 -79 207 -102 266 -27 72 -27 72 -65 72 l-37 0 -18 -62z"/>
</g>
</svg>
